<svg width="35" height="35" viewBox="0 0 35 35" fill="none" xmlns="http://www.w3.org/2000/svg">
<path d="M28.75 30.625H6.25C5.21875 30.625 4.375 29.7813 4.375 28.75V6.25C4.375 5.21875 5.21875 4.375 6.25 4.375H28.75C29.7813 4.375 30.625 5.21875 30.625 6.25V28.75C30.625 29.7813 29.7813 30.625 28.75 30.625ZM30.625 0.625H4.375C2.3125 0.625 0.625 2.3125 0.625 4.375V30.625C0.625 32.6875 2.3125 34.375 4.375 34.375H30.625C32.6875 34.375 34.375 32.6875 34.375 30.625V4.375C34.375 2.3125 32.6875 0.625 30.625 0.625Z" fill="#212121"/>
</svg>
